<svg xmlns="http://www.w3.org/2000/svg" viewBox="0 0 867.49 251.08"><defs><style>.cls-1{fill:none;stroke:#f1f2f2;stroke-miterlimit:10;stroke-width:7.59px;}.cls-2{fill:#f1f2f2;}</style></defs><title>12312Asset 3qww21312312</title><g id="Layer_2" data-name="Layer 2"><g id="Layer_1-2" data-name="Layer 1"><rect class="cls-1" x="3.79" y="3.79" width="859.9" height="243.5" rx="32.46"/><path class="cls-2" d="M60.83,180.69C57.35,156.89,57,154.76,57,152.83c0-1.36.78-1.94,1.74-1.94,4.84,0,18,36.19,53.22,36.19,19.16,0,27.67-9.29,27.67-19.74,0-32.51-79.73-41.6-79.73-80.12,0-18.38,17.81-32.51,51.87-32.51,22.25,0,37,5.42,37.93,11,3.67,19.94,4.26,23.23,4.26,24.58,0,1.16-.59,1.74-1.94,1.74-5.23,0-14.9-28.64-43.54-28.64-19.16,0-27.68,7.55-27.68,16.84,0,28.06,80.31,36.57,80.31,79.15,0,23.41-20.51,37-51.66,37C82.31,196.37,62,187.47,60.83,180.69Z"/><path class="cls-2" d="M171.72,173V110.83c0-9.09-7.55-8.12-7.55-11.8,0-1.74,1.36-2.9,3.68-2.9,10.45,0,14.51-22.84,20.71-22.84,2.7,0,3.67,2.32,3.67,6V96.51h16.84c3.87,0,5.42,1.55,5.42,6.2,0,4.06-1.36,5.61-3.49,5.61-4.64,0-6.19-5.81-13.74-5.81h-5V172c0,10.45,2.52,13.35,7.74,13.35,4.45,0,10.07-4.26,13.36-7.16,1.35-1.36,2.51-1.74,3.09-1.16,1,.58.2,2.9-1.93,5.61-4.26,5.81-11.42,13.55-22.65,13.55C181,196.18,171.72,189.79,171.72,173Z"/><path class="cls-2" d="M220.49,172.76c0-21.09,23-35.41,55.34-36.19V124.19c0-15.68-4.45-24-14.51-24-16.06,0-13.93,23.22-26.32,23.22-5,0-8.32-3.48-8.32-8.12,0-12.58,13.74-21.87,33.28-21.87,22.65,0,36.38,11.22,36.38,36v39.87c0,18.19,7.17,17.41,7.17,21.67,0,1.94-2.13,2.13-6.78,2.71-9.48,1.36-14.12,2.71-18.19,2.71-1.93,0-2.71-1-2.71-4.06v-9.49c-4.64,6-14.13,13.55-29.22,13.55C231.71,196.37,220.49,188.44,220.49,172.76Zm36.18,12.77c8.91,0,15.49-5.61,19.16-12.19V142.57c-20.9,1-35,12-35,27.48C240.81,181.08,247,185.53,256.67,185.53Z"/><path class="cls-2" d="M311.63,194.05c-2.13,0-3.29-1-3.29-2.91,0-5.22,9.49-5,9.49-15.48V120.51c0-14.32-7.16-13.93-7.16-17.61,0-1.94,2.32-3.29,6.77-3.87,9.48-.77,13.93-5.61,18-5.61,1.93,0,2.9,1,2.9,4.06v11c5-7,13.93-15.09,26.7-15.09,8.71,0,13.94,4.06,13.94,10.64,0,5.81-3.68,8.71-8.52,8.71-7.16,0-8.12-7.16-16.64-7.16-5.22,0-11.42,4.45-15.48,12.19v57.86c0,10.45,9.29,10.26,9.29,15.48,0,1.94-1.16,2.91-3.29,2.91-4.26,0-8.13-.78-15.68-.78h-1.35C319.76,193.27,315.89,194.05,311.63,194.05Z"/><path class="cls-2" d="M388.46,173V110.83c0-9.09-7.55-8.12-7.55-11.8,0-1.74,1.36-2.9,3.68-2.9,10.45,0,14.51-22.84,20.71-22.84,2.71,0,3.67,2.32,3.67,6V96.51h16.84c3.87,0,5.42,1.55,5.42,6.2,0,4.06-1.36,5.61-3.49,5.61-4.64,0-6.19-5.81-13.73-5.81h-5V172c0,10.45,2.52,13.35,7.74,13.35,4.45,0,10.07-4.26,13.36-7.16,1.35-1.36,2.51-1.74,3.09-1.16,1,.58.2,2.9-1.93,5.61-4.26,5.81-11.42,13.55-22.64,13.55C397.75,196.18,388.46,189.79,388.46,173Z"/><path class="cls-2" d="M480.38,194.05c-2.13,0-3.29-1-3.29-2.91,0-5.22,9.48-5,9.48-15.48V120.51c0-14.32-7.16-13.93-7.16-17.61,0-1.94,2.33-3.29,6.78-3.87,9.48-.77,14.12-5.61,18.19-5.61,1.93,0,2.71,1,2.71,4.06v15.1h.38c2.52-7.36,10.84-19.16,25.16-19.16,13.74,0,21.68,7,21.68,22.83v59.41c0,10.45,9.48,10.26,9.48,15.48,0,1.94-1.16,2.91-3.29,2.91-4.45,0-8.32-.78-15.68-.78h-1.54c-7.36,0-11.23.78-15.68.78-2.13,0-3.29-1-3.29-2.91,0-5.22,9.48-5,9.48-15.48v-58c0-10.65-4.26-13.36-9.67-13.36-7.55,0-14.13,8.33-17,20.9v50.51c0,10.45,9.48,10.26,9.48,15.48,0,1.94-1.16,2.91-3.29,2.91-4.45,0-8.32-.78-15.68-.78h-1.54C488.7,193.27,484.83,194.05,480.38,194.05Z"/><path class="cls-2" d="M569.79,143.73c0-32.51,24.38-50.31,47.22-50.31,22.64,0,46.63,17.8,46.63,50.31,0,34.84-22.44,52.64-46.63,52.64C592.62,196.37,569.79,178.57,569.79,143.73Zm47.6,43.35c15.1,0,23.81-14.13,23.81-43.93,0-25.93-9.87-40.44-23.81-40.44-14.12,0-25.15,14.51-25.15,40.44C592.24,173,602.11,187.08,617.39,187.08Z"/><path class="cls-2" d="M703.9,191c0-1.16-.39-3.29-2.52-9.09l-25.93-67.35c-3.87-10.26-14.71-10.26-14.71-15.67,0-2.13,1.36-3.29,3.68-3.29,5,0,9.48,1,18,1,7.55,0,11.42-1,15.87-1,2.32,0,3.29,1.16,3.29,3.29,0,5.61-9.49,5.41-5.42,15.86l22.45,59,16.06-43.35-5.23-15.68c-3.29-10.45-14.12-10.45-14.12-15.86,0-2.13,1.35-3.29,3.67-3.29,5,0,9.49,1,17.81,1,7.54,0,11.61-1,16.06-1a3,3,0,0,1,3.29,3.29c0,5.61-9.68,5.41-6.19,16.06l18.19,58.63,21.09-58.24c3.87-10.84-6.77-10.65-6.77-16.45,0-2.13,1.35-3.29,3.67-3.29,3.49,0,6.58.38,11.23.77,3.87-.19,6.77-.58,9.67-.58q3.5,0,3.49,2.9c0,5-9.87,4.84-13.35,14.32L772,181.86c-2.13,5.8-2.13,7.93-2.13,9.09,0,1.55-1.16,2.32-3.1,2.32H756.15c-1.94,0-3.1-.77-3.1-2.32,0-1.16,0-3.29-1.74-9.29L738,140.83l-15.1,41c-2.13,5.8-2.32,7.93-2.32,9.09,0,1.55-1,2.32-2.9,2.32H706.8C704.87,193.27,703.9,192.5,703.9,191Z"/></g></g></svg>