<svg xmlns="http://www.w3.org/2000/svg" viewBox="0 0 3322.01 503.36"><defs><style>.cls-1{fill:#f1f2f2;}</style></defs><title>12312Asset 2qww21312312</title><g id="Layer_2" data-name="Layer 2"><g id="Layer_1-2" data-name="Layer 1"><path class="cls-1" d="M0,303.25C0,145.09,90.77,0,269.56,0c57.08,0,105.9,21.32,105.21,40.57L372,110.71c-.69,17.88-2.75,23.38-6.88,23.38C350,134.09,337.64,23.38,251,23.38c-145.78,0-195.29,176-195.29,286.06,0,94.21,38.51,171.92,121,171.92,57.07,0,101.08-29.57,138.9-75.65,6.88-9.62,15.13-8.93,15.13-2.06,0,3.44-2.06,8.25-7.56,15.13-44,53.64-90.77,84.58-163.66,84.58C55.7,503.36,0,416,0,303.25Z"/><path class="cls-1" d="M436.65,164.35c-8.94,0-27.5,19.25-47.44,53.64l-7.57-3.44c16.5-33.7,49.51-77,85.27-77,22.69,0,33,10.31,23.38,54.32L449,386.46h3.44c55-148.53,93.52-248.24,154-248.24,22.7,0,39.89,14.44,39.89,35.76,0,18.56-11.69,28.88-24.76,28.88-24.75,0-27.51-37.14-42-37.14-35.07,0-116.9,220.74-152,321.83l-1.37,4.81H381L439.4,215.92C448.34,174.66,447,164.35,436.65,164.35Z"/><path class="cls-1" d="M710.34,484.11c11.69,0,25.44-18.57,44.7-55.7l7.56,4.12c-17.19,33.7-36.45,70.83-68.08,70.83-25.44,0-48.13-16.5-35.76-68.08l51.58-220.73C720.65,174,719.28,163.66,709,163c-8.94,0-28.19,18.57-48.82,52.95l-7.56-3.44c17.19-33.69,51.57-76.32,87.33-75.64,22.69.69,31.63,11,22,55l-59.82,251C695.21,474.48,700,484.11,710.34,484.11ZM770.16,6.19c16.51,0,27.51,17.19,23.38,37.13C789.42,64,772.23,80.46,755,80.46c-16.51,0-27.51-17.2-23.38-37.14C735.78,22.69,753,6.19,770.16,6.19Z"/><path class="cls-1" d="M854.05,37.13c-11-.68-14.44-7.56-1.37-11C869.18,22,926.94-2.75,944.82.69c4.82.69,7.57,4.81,5.5,10.31l-50.2,233.8h2.76c18.56-48.82,58.45-107.27,111.4-107.27,59.13,0,90.08,44,90.08,112.78,0,151.28-92.83,253.05-171.91,253.05-43.33,0-62.58-19.94-76.33-41.26h-2.07l-45.38,30.26h-6.88L892.56,66C896.69,47.45,887.06,37.82,854.05,37.13Zm72.21,454.54c69.45,0,130-118.27,130-237.24,0-66.7-17.19-104.52-48.13-104.52-48.83,0-88,66.7-124.47,174.66l-13.75,64.64C862.3,451.79,889.81,491.67,926.26,491.67Z"/><path class="cls-1" d="M1274.89,303.25C1274.89,145.09,1365.66,0,1544.45,0c57.07,0,105.89,21.32,105.21,40.57l-2.75,70.14c-.69,17.88-2.75,23.38-6.88,23.38-15.13,0-27.51-110.71-114.15-110.71-145.78,0-195.29,176-195.29,286.06,0,94.21,38.5,171.92,121,171.92,57.08,0,101.09-29.57,138.91-75.65,6.87-9.62,15.13-8.93,15.13-2.06,0,3.44-2.07,8.25-7.57,15.13-44,53.64-90.77,84.58-163.66,84.58C1330.59,503.36,1274.89,416,1274.89,303.25Z"/><path class="cls-1" d="M1695,37.13c-11.7,0-14.45-7.56-1.38-11,16.5-4.13,73.58-28.88,90.77-25.44,4.81.69,8.25,5.5,4.81,11.69l1.38-1.38-79.77,375.46h2.75c55-148.53,96.27-248.93,147.16-248.93,29.57,0,38.51,20.63,29.57,58.45l-58.45,246.87c-6.88,31.63-2.07,41.26,8.25,41.26,11.69,0,25.44-18.57,44.7-55.7l7.56,4.12c-17.19,33.7-36.44,70.83-68.08,70.83-25.44,0-48.13-16.5-35.75-68.08l56.38-241.36c4.82-19.94.69-28.2-8.94-28.2-33,0-109.33,213.86-145.78,316.32l-2.06,10.32h-46.08L1732.86,66C1737,47.45,1727.35,37.82,1695,37.13Z"/><path class="cls-1" d="M1924,380.27c0-111.4,65.33-242.74,186.36-242.74,55.7,0,80.45,24.76,80.45,58.45,0,82.52-143,137.53-220,149.22v14.44c0,69.45,39.89,110.71,90.09,110.71,46.07,0,76.32-41.94,90.08-66l5.5,4.13c-11.69,32.32-57.08,94.89-128.59,94.89C1979.72,503.36,1924,461.42,1924,380.27Zm221.43-185c0-28.88-13.07-46.76-44-46.76-77,0-123.09,93.52-130,187C2034.05,324.57,2145.45,285.38,2145.45,195.29Z"/><path class="cls-1" d="M2198.39,372.71c0-119.65,72.21-235.18,185-235.18,57.76,0,90.77,30.94,90.77,59.14,0,18.57-11.69,31.63-26.82,31.63-46.07,0-8.94-79.77-71.51-79.77-83.9,0-130.66,103.15-130.66,193.23s45.39,125.16,90.09,125.16c33,0,63.26-19.26,90.08-62.58l5.5,4.13c-13.75,35.75-59.14,94.89-127.9,94.89C2245.84,503.36,2198.39,453.16,2198.39,372.71Z"/><path class="cls-1" d="M2613,396.09l-29.57-98.34c-22,49.51-39.88,90.09-46.76,125.16l-15.12,69.45h-46.08L2566.28,66c4.13-18.56-5.5-28.19-39.19-29.56-11,0-13.76-6.88-1.38-10.32C2542.9,22,2601.35-3.44,2619.23.69c4.82.69,6.88,4.81,4.82,10.31l-66.71,314.26c48.83-121,96.28-187,145.1-187,24.75,0,39.88,14.44,39.88,35.76,0,15.81-11,25.44-19.94,25.44-29.57,0-20.63-30.95-43.32-30.95-19.26,0-41.95,27.51-66,70.15l44,152.65c20.63,71.52,31.64,81.84,41.95,81.84s26.82-17.88,46.76-46.08l6.88,3.44c-27.51,42.64-48.14,72.89-73.58,72.89C2652.24,503.36,2639.17,483.42,2613,396.09Z"/><path class="cls-1" d="M2763,380.27c0-111.4,65.33-242.74,186.36-242.74,55.7,0,80.45,24.76,80.45,58.45,0,82.52-143,137.53-220.05,149.22v14.44c0,69.45,39.89,110.71,90.08,110.71,46.08,0,76.33-41.94,90.09-66l5.5,4.13c-11.69,32.32-57.08,94.89-128.59,94.89C2818.65,503.36,2763,461.42,2763,380.27Zm221.43-185c0-28.88-13.07-46.76-44-46.76-77,0-123.09,93.52-130,187C2873,324.57,2984.38,285.38,2984.38,195.29Z"/><path class="cls-1" d="M3112.27,164.35c-8.94,0-27.5,19.25-47.44,53.64l-7.57-3.44c16.51-33.7,49.51-77,85.27-77,22.69,0,33,10.31,23.38,54.32l-41.26,194.61h3.44c55-148.53,93.52-248.24,154-248.24,22.7,0,39.89,14.44,39.89,35.76,0,18.56-11.69,28.88-24.76,28.88-24.75,0-27.5-37.14-41.94-37.14-35.07,0-116.9,220.74-152,321.83l-1.37,4.81h-45.38L3115,215.92C3124,174.66,3122.59,164.35,3112.27,164.35Z"/></g></g></svg>